<svg width="200" height="32" viewBox="0 0 200 32" fill="none" xmlns="http://www.w3.org/2000/svg">
<g clip-path="url(#clip0_7_30)">
<path d="M23.1041 28.2972C20.5799 30.7683 17.3599 32.0032 13.4442 32.0019C9.52848 32.0007 6.30851 30.7658 3.78431 28.2972C1.26144 25.8262 0 22.6917 0 18.8938C0 15.0959 1.26144 11.9614 3.78431 9.49028C6.30851 7.02177 9.52848 5.78687 13.4442 5.78558C17.3599 5.7843 20.5799 7.0192 23.1041 9.49028C25.6256 11.9614 26.8871 15.0959 26.8884 18.8938C26.8897 22.6917 25.6283 25.8262 23.1041 28.2972ZM13.4442 28.0504C16.0458 28.0504 18.1484 27.1826 19.752 25.4469C21.3557 23.7112 22.1562 21.5256 22.1535 18.8899C22.1535 16.2311 21.353 14.0403 19.752 12.3175C18.1511 10.5947 16.0485 9.73584 13.4442 9.74099C10.8146 9.74099 8.70531 10.6024 7.11634 12.3252C5.52737 14.048 4.73222 16.2375 4.73089 18.8938C4.73089 21.5538 5.52604 23.7446 7.11634 25.4662C8.70664 27.1877 10.8159 28.0491 13.4442 28.0504Z" fill="white"/>
<path d="M36.9405 32.0019C35.3396 32.0019 34.1242 31.5963 33.2943 30.785C32.4645 29.9737 32.0476 28.8089 32.0435 27.2905V16.6836H28.8976V13.1949H32.0435V8.18079H36.1841V13.1949H40.0484V16.6836H36.1921V26.2973C36.1618 26.8587 36.3281 27.4136 36.6644 27.8729C36.8224 28.0676 37.0268 28.2229 37.2601 28.3256C37.4934 28.4283 37.749 28.4754 38.0052 28.4631C38.8457 28.4631 39.4634 28.2477 39.8583 27.817L40.8489 30.8236C39.9777 31.6091 38.6749 32.0019 36.9405 32.0019Z" fill="white"/>
<path d="M59.5703 31.5449H55.4318V29.5701C53.9642 31.1926 51.9137 32.0032 49.28 32.0019C47.5942 32.0152 45.9599 31.4421 44.6772 30.3878C43.3431 29.3104 42.676 27.8222 42.676 25.9232C42.676 23.9741 43.3431 22.4956 44.6772 21.4876C45.9829 20.4826 47.6091 19.9437 49.28 19.9622C51.9884 19.9622 54.0389 20.7471 55.4318 22.3169V19.5765C55.4318 18.5119 55.0242 17.6762 54.2091 17.0694C53.3939 16.4625 52.3166 16.1585 50.9771 16.1572C48.8424 16.1572 46.9626 16.9286 45.3376 18.4714L43.6506 15.7021C45.8053 13.7272 48.4736 12.7398 51.6555 12.7398C53.9956 12.7398 55.9014 13.2715 57.373 14.3347C58.8445 15.398 59.5783 17.0822 59.5743 19.3875L59.5703 31.5449ZM50.897 29.2654C52.9743 29.2654 54.4859 28.6322 55.4318 27.3658V24.5906C54.4846 23.3255 52.973 22.6923 50.897 22.691C49.715 22.691 48.7424 22.9951 47.9793 23.6032C47.6096 23.8898 47.3141 24.255 47.1158 24.6703C46.9175 25.0856 46.8219 25.5396 46.8366 25.9965C46.82 26.4509 46.9149 26.9027 47.1134 27.3152C47.3119 27.7276 47.6086 28.0892 47.9793 28.3705C48.7424 28.9671 49.715 29.2654 50.897 29.2654V29.2654Z" fill="white"/>
<path d="M81.924 31.5449H77.7854V20.0721C77.7854 17.5406 76.5107 16.2742 73.9611 16.2729C72.9773 16.269 72.0102 16.518 71.1594 16.9942C70.3442 17.4314 69.6316 18.0263 69.0661 18.7414V31.5449H64.9316V13.195H69.0661V15.702C69.8585 14.8301 70.8241 14.1199 71.9059 13.6135C73.1019 13.0277 74.4267 12.7281 75.7682 12.7398C77.7921 12.7398 79.3264 13.2464 80.371 14.2595C81.4156 15.2726 81.9346 16.7287 81.928 18.6276L81.924 31.5449Z" fill="white"/>
<path d="M102.148 31.5449H97.5455V6.20407H102.148V31.5449Z" fill="white"/>
<path d="M124.622 31.5449H120.481V20.0721C120.481 17.5406 119.207 16.2742 116.657 16.2729C115.673 16.269 114.706 16.518 113.855 16.9941C113.042 17.4319 112.33 18.0267 111.766 18.7414V31.5449H107.63V13.195H111.768V15.702C112.561 14.8307 113.527 14.1206 114.608 13.6134C115.804 13.0279 117.129 12.7283 118.47 12.7398C120.495 12.7398 122.03 13.2464 123.073 14.2595C124.116 15.2726 124.635 16.7287 124.63 18.6276L124.622 31.5449Z" fill="white"/>
<path d="M139.445 31.5449H134.988L127.222 13.1949H131.638L137.196 26.9492L147.14 3.99975L152.019 8.21357L157.222 0.954607L156.469 0.37605L160.294 0.00384521L160.344 3.39612L159.473 2.71728L152.243 12.2075L148.793 9.4594L139.445 31.5449Z" fill="white"/>
<path d="M158.605 32.0019C155.714 32.0019 153.328 31.109 151.448 29.3232C149.569 27.5374 148.629 25.2135 148.631 22.3516C148.631 19.6671 149.544 17.394 151.37 15.5323C153.197 13.6707 155.504 12.7398 158.291 12.7398C161.102 12.7398 163.37 13.6771 165.095 15.5516C166.82 17.4261 167.68 19.8194 167.676 22.7315V23.6804H152.967C153.094 25.065 153.755 26.3533 154.82 27.2905C155.897 28.2535 157.303 28.735 159.039 28.735C160.043 28.7292 161.037 28.5489 161.975 28.2027C162.899 27.8838 163.74 27.3751 164.44 26.712L166.331 29.3348C164.413 31.1129 161.837 32.0019 158.605 32.0019ZM163.652 20.8705C163.603 19.6143 163.093 18.4155 162.213 17.4879C161.306 16.5005 159.998 16.0068 158.291 16.0068C156.659 16.0068 155.383 16.494 154.464 17.4686C153.565 18.401 153.023 19.601 152.927 20.8705H163.652Z" fill="white"/>
<path d="M178.279 32.0019C174.861 32.0019 172.14 31.0518 170.116 29.1516L172.009 26.2588C173.76 27.8587 176.063 28.779 178.475 28.843C179.684 28.843 180.61 28.6148 181.255 28.1584C181.557 27.9612 181.803 27.6948 181.972 27.3831C182.141 27.0714 182.226 26.7241 182.221 26.3726C182.221 25.7156 181.827 25.2013 181.038 24.8298C180.12 24.4235 179.153 24.13 178.159 23.9561C177.03 23.7427 175.9 23.4766 174.769 23.1577C173.667 22.8585 172.672 22.2742 171.891 21.4683C171.102 20.6584 170.708 19.6073 170.708 18.3152C170.708 16.7428 171.379 15.4192 172.719 14.3444C174.06 13.2695 175.887 12.7315 178.199 12.7302C181.117 12.7302 183.585 13.591 185.603 15.3125L183.868 18.1243C183.203 17.4251 182.382 16.8799 181.467 16.5294C180.443 16.1189 179.344 15.9116 178.235 15.92C177.155 15.92 176.295 16.1295 175.653 16.5487C175.011 16.9678 174.689 17.5059 174.687 18.1628C174.687 18.6694 174.969 19.0808 175.533 19.3971C176.196 19.7468 176.916 19.9842 177.662 20.0991C178.518 20.2508 179.444 20.4604 180.442 20.7278C181.39 20.9761 182.318 21.2867 183.222 21.6573C184.091 22.0252 184.83 22.6282 185.351 23.393C185.935 24.2555 186.231 25.2699 186.198 26.2993C186.198 27.9707 185.501 29.338 184.108 30.4013C182.715 31.4645 180.772 31.9981 178.279 32.0019Z" fill="white"/>
<path d="M196.098 32.0019C194.497 32.0019 193.281 31.5963 192.451 30.785C191.622 29.9737 191.207 28.8089 191.209 27.2905V16.6836H188.055V13.1949H191.209V8.18079H195.343V13.1949H199.208V16.6836H195.343V26.2973C195.313 26.8589 195.48 27.4139 195.817 27.8729C195.976 28.0676 196.18 28.2229 196.413 28.3256C196.647 28.4283 196.902 28.4754 197.158 28.4631C197.999 28.4631 198.616 28.2477 199.009 27.817L199.996 30.8178C199.133 31.6072 197.833 32.0019 196.098 32.0019Z" fill="white"/>
</g>
<defs>
<clipPath id="clip0_7_30">
<rect width="200" height="32" fill="white"/>
</clipPath>
</defs>
</svg>
