<svg width="35" height="35" viewBox="0 0 35 35" fill="none" xmlns="http://www.w3.org/2000/svg">
<path d="M17.5 19.1406C18.4061 19.1406 19.1406 18.4061 19.1406 17.5C19.1406 16.5939 18.4061 15.8594 17.5 15.8594C16.5939 15.8594 15.8594 16.5939 15.8594 17.5C15.8594 18.4061 16.5939 19.1406 17.5 19.1406Z" fill="white"/>
<path d="M17.5 3.28125C9.65986 3.28125 3.28125 9.65986 3.28125 17.5C3.28125 25.3401 9.65986 31.7188 17.5 31.7188C25.3401 31.7188 31.7188 25.3401 31.7188 17.5C31.7188 9.65986 25.3401 3.28125 17.5 3.28125ZM24.6825 11.0284L21.4778 19.0401C21.2578 19.5904 20.9282 20.0902 20.5092 20.5092C20.0902 20.9282 19.5904 21.2578 19.0401 21.4778L11.0284 24.6825C10.929 24.7223 10.8202 24.732 10.7153 24.7105C10.6104 24.689 10.5142 24.6372 10.4385 24.5615C10.3628 24.4858 10.311 24.3896 10.2895 24.2847C10.268 24.1798 10.2777 24.071 10.3175 23.9716L13.5222 15.9599C13.7422 15.4096 14.0718 14.9098 14.4908 14.4908C14.9098 14.0718 15.4096 13.7422 15.9599 13.5222L23.9716 10.3175C24.071 10.2777 24.1798 10.268 24.2847 10.2895C24.3896 10.311 24.4858 10.3628 24.5615 10.4385C24.6372 10.5142 24.689 10.6104 24.7105 10.7153C24.732 10.8202 24.7223 10.929 24.6825 11.0284V11.0284Z" fill="white"/>
</svg>
