<svg width="20" height="17" viewBox="0 0 20 17" fill="none" xmlns="http://www.w3.org/2000/svg">
<path d="M8.57214 1C7.21862 1 5.8955 1.35889 4.77009 2.03128C3.64469 2.70367 2.76754 3.65937 2.24957 4.77752C1.7316 5.89567 1.59608 7.12604 1.86014 8.31306C2.12419 9.50008 2.77597 10.5904 3.73305 11.4462C4.69013 12.302 5.90953 12.8848 7.23704 13.1209C8.56455 13.357 9.94054 13.2359 11.191 12.7727C12.4415 12.3096 13.5103 11.5252 14.2623 10.5189C15.0143 9.51263 15.4156 8.32953 15.4156 7.11926C15.4155 5.49636 14.6945 3.93996 13.4111 2.7924C12.1277 1.64484 10.3871 1.0001 8.57214 1V1Z" fill="#2C3139" stroke="white" stroke-width="2" stroke-miterlimit="10"/>
<path d="M13.6779 11.7264L18.4573 16Z" fill="#2C3139"/>
<path d="M13.6779 11.7264L18.4573 16" stroke="white" stroke-width="2" stroke-miterlimit="10" stroke-linecap="round"/>
</svg>
